<svg width="50" height="50" viewBox="0 0 50 50" fill="none" xmlns="http://www.w3.org/2000/svg">
<path fill-rule="evenodd" clip-rule="evenodd" d="M44.4444 16.6667C47.5127 16.6667 50 14.1794 50 11.1111V5.55556C50 4.08215 49.4147 2.66903 48.3728 1.62715C47.331 0.585347 45.9178 0 44.4444 0H5.55556C4.08215 0 0 0 0 0C0 0 0 4.08215 0 5.55556V44.4444C0 45.9178 0.585347 47.331 1.62715 48.3728C2.66903 49.4147 4.08215 50 5.55556 50H11.1111C14.1794 50 16.6667 47.5127 16.6667 44.4444V22.2222C16.6667 19.154 19.154 16.6667 22.2222 16.6667H44.4444ZM50 38.8889C50 37.4155 49.4147 36.0024 48.3728 34.9605C47.331 33.9187 45.9178 33.3333 44.4444 33.3333H38.8889C37.4155 33.3333 36.0024 33.9187 34.9605 34.9605C33.9187 36.0024 33.3333 37.4155 33.3333 38.8889V44.4444C33.3333 45.9178 33.9187 47.331 34.9605 48.3728C36.0024 49.4147 37.4155 50 38.8889 50H50V38.8889Z" fill="white"/>
</svg>
